<svg width="649" height="646" viewBox="0 0 649 646" fill="none" xmlns="http://www.w3.org/2000/svg">
<path d="M151.161 123.148L127.981 101.867V86.2256L204.672 30.5006L321.429 12.8101L441.724 30.5006L521.042 86.2256V101.867L497.799 123.148L498.391 521.187L521.042 544.12V562.1L451.454 608.98L370.077 623.132L316.122 634.631L200.249 608.98L127.981 562.1V544.12L150.569 521.187L151.161 123.148Z" fill="#B2D2D3"/>
<path d="M123.939 497.071L102.658 520.251H87.0171L31.2921 443.561L13.6016 326.803L31.2921 206.508L87.0171 127.19H102.658L123.939 150.433L148.328 150.397L497.185 149.878L521.978 149.841L544.912 127.19H562.891L609.771 196.778L623.923 278.155L635.422 332.111L609.771 447.983L562.891 520.251H544.912L521.978 497.663L497.185 497.626L148.328 497.108L123.939 497.071Z" fill="#B2D2D3"/>
<path d="M460.679 334.095C459.158 322.686 456.115 299.259 456.115 296.825L442.33 264.839H199.194L192.884 296.933C192.884 299.367 189.842 322.795 188.32 334.204L170.826 370.714L172.728 394.673H188.32L199.194 384.337L449.806 384.228L460.679 394.565H476.272L478.173 370.605L460.679 334.095Z" fill="#644028" stroke="black" stroke-width="8" stroke-linecap="square"/>
<path d="M444.576 353.219L450.403 471.434C451.153 508.834 452.136 576.254 451.467 608.4L433.281 623.814L241.992 625.644L197.468 605.035C196.931 571.715 197.872 507.649 198.596 471.55L204.423 353.335L210.249 311.856L215.575 206.333L280.877 118.975L366.989 124.722L429.062 181.811L436.238 235.069L438.75 311.74L444.576 353.219Z" fill="white" stroke="black" stroke-width="6" stroke-linecap="square"/>
<path d="M311.38 229.482L309.435 224.295L360.094 227.312L362.687 232.786L311.38 229.482Z" fill="#C4C4C4"/>
<path d="M378.534 197.513L351.825 199.458L349.434 200.805V193.314L378.534 189.857V197.513Z" fill="#C4C4C4"/>
<path d="M401.635 185.838L380.989 164.303L369.444 160.529L367.224 149.873L376.77 146.765L409.183 169.853L427.166 203.599V221.137L415.844 216.253L401.635 185.838Z" fill="#C4C4C4"/>
<path d="M237.128 178.734L282.639 146.765H285.969V153.203H281.085L244.898 185.838L229.135 217.363H223.363L222.031 211.813C223.141 208.557 225.494 201.797 226.027 200.805C226.56 199.814 233.65 185.678 237.128 178.734Z" fill="#C4C4C4"/>
<path d="M439.482 304.315L438.163 297.937L397.258 277.924H389.561L411.772 304.315H439.482Z" fill="#C4C4C4"/>
<path d="M208.561 307.315L209.88 300.937L250.785 280.924H258.482L236.27 307.315H208.561Z" fill="#C4C4C4"/>
<path d="M371.426 292.935L368.637 290.683L344.849 317.904L321.221 360.841L323.795 366.42L350.507 319.788L371.426 292.935Z" fill="#C4C4C4"/>
<path d="M277.644 292.749L279.426 291.413L302.645 317.904L326.273 360.842L323.699 366.42L298.361 319.54L277.644 292.749Z" fill="#C4C4C4"/>
<path d="M444.576 353.219L450.403 471.434C451.142 508.293 452.107 574.307 451.495 606.98L418.566 625.958L241.406 626.04L197.431 602.535C196.977 568.597 197.89 506.766 198.596 471.55L204.423 353.335L210.249 311.856L215.575 206.333L280.877 118.975L366.989 124.722L429.062 181.811L436.238 235.069L438.75 311.74L444.576 353.219Z" stroke="black" stroke-width="6" stroke-linecap="square"/>
<path d="M366.923 288.822H282.072L305.351 322.328L324.192 357.91L342.723 322.328L366.923 288.822Z" fill="#FFCC00"/>
<path d="M342.506 322.328L366.706 288.822H323.975V357.91L342.506 322.328Z" fill="#EE9B00"/>
<path d="M367.141 293.072L346.043 316.373L323.882 359.775L302.957 316.373L281.858 293.072" stroke="black" stroke-width="6" stroke-linecap="square"/>
<path d="M452.574 296.988H414.797L392.59 276.591V239.314L414.797 218.917H452.574L474.78 239.314V276.591L452.574 296.988Z" fill="white" stroke="black" stroke-width="6" stroke-linecap="square"/>
<path d="M218.674 147.806V121.553L228.009 114.389" stroke="black" stroke-width="8" stroke-linecap="square"/>
<path d="M429.912 148.916V121.056L420.577 113.891" stroke="black" stroke-width="8" stroke-linecap="square"/>
<path d="M311.463 221.893L286.285 144.783L307.477 85.8234L353.984 139.77L378.854 165.684L375.895 189.93L347.174 192.256L356.228 225.233L311.463 221.893Z" fill="#C61111" stroke="black" stroke-width="6"/>
<path d="M361.041 167.25C353.94 159.233 342.325 142.167 340.676 138.044L347.799 135.639L364.292 149.383L378.38 167.25C377.578 173.092 375.906 185.393 375.631 187.867C375.356 190.341 366.79 188.898 364.041 187.867L361.041 167.25Z" fill="#920E0E"/>
<path d="M332.91 190.267L345.81 189.455L354.148 225.367L340.623 225.367L332.91 190.267Z" fill="#920E0E"/>
<path d="M311.463 221.893L286.285 144.783L307.477 85.8234L353.984 139.77L378.854 165.684L375.895 189.93L347.174 192.256L356.228 225.233L311.463 221.893Z" stroke="black" stroke-width="6"/>
<path d="M439.659 184.309L428.798 154.526M428.798 154.526L424.736 126.773L416.614 120.004L424.736 106.466L434.213 115.266V146.403L428.798 154.526ZM209.34 184.418L220.201 154.634M220.201 154.634L224.262 126.882L232.385 120.113L224.262 106.575L214.786 115.375V146.512L220.201 154.634Z" stroke="black" stroke-width="8" stroke-linecap="square"/>
<path d="M409.845 180.924L428.798 217.477H441.659V184.309L428.798 154.526L424.736 126.773L416.614 120.004L424.736 106.466L367.967 60.5881L359.406 57.7411L336.999 50.2903L311.999 50.399L289.919 57.7411L281.031 60.6967L224.262 106.575L232.385 120.113L224.262 126.882L220.201 154.634L207.34 184.418V217.585H220.201L239.154 181.033L278.413 146.512L316.319 132.297L324.499 132.243L332.679 132.188L370.585 146.403L409.845 180.924Z" fill="#644028" stroke="black" stroke-width="8" stroke-linecap="square"/>
<path d="M336.999 50.2903L311.999 50.399L289.919 57.7411L324.499 132.243L359.406 57.7411L336.999 50.2903Z" fill="#6F513D"/>
<path d="M367.967 60.5881L359.406 57.7411M327.913 132.243H324.499M324.499 132.243L289.919 57.7411M324.499 132.243L359.406 57.7411M220.201 217.585H207.34M224.262 106.575L281.031 60.6967L289.919 57.7411M289.919 57.7411L311.999 50.399L336.999 50.2903L359.406 57.7411" stroke="black" stroke-width="8" stroke-linecap="square"/>
<path d="M196.426 300.026H234.203L256.41 278.341V238.711L234.203 217.026H196.426L174.22 238.711V278.341L196.426 300.026Z" fill="white" stroke="black" stroke-width="6" stroke-linecap="square"/>
<path d="M400.098 129.812C391.5 126.321 370.053 120.451 368.557 119.844L356.337 93.2797L372.907 58.4439L400.098 51.0504L427.758 62.284L436.987 86.2014L424.136 117.844L400.098 129.812Z" stroke="black" stroke-width="8" stroke-linecap="square"/>
<g filter="url(#filter0_i_19_259)">
<path d="M400.098 129.812C391.5 126.321 372.053 118.451 370.557 117.844L360.337 93.2798L374.906 60.4439L400.098 51.0504L427.758 62.2841L436.987 86.2014L424.136 117.844L400.098 129.812Z" fill="#D0EAEB"/>
</g>
<path d="M400.098 129.812C391.5 126.321 372.053 118.451 370.557 117.844L360.337 93.2798L374.906 60.4439L400.098 51.0504L427.758 62.2841L436.987 86.2014L424.136 117.844L400.098 129.812Z" stroke="black" stroke-width="8" stroke-linecap="square"/>
<path d="M399.12 128.425L423.512 114.369L433.739 86.2124L423.512 60.6707" stroke="#B6CFD0" stroke-width="10"/>
<g filter="url(#filter1_i_19_259)">
<path d="M400.098 129.812C391.5 126.321 372.053 118.451 370.557 117.844L360.337 93.2798L374.906 60.4439L400.098 51.0504L427.758 62.2841L436.987 86.2014L424.136 117.844L400.098 129.812Z" stroke="black" stroke-width="8" stroke-linecap="square"/>
</g>
<path d="M248.901 129.921C257.499 126.43 278.946 120.56 280.442 119.953L292.662 93.3886L276.092 58.5528L248.901 51.1593L221.241 62.3929L212.012 86.3103L224.863 117.953L248.901 129.921Z" stroke="black" stroke-width="8" stroke-linecap="square"/>
<path d="M248.901 129.921C257.499 126.429 276.946 118.56 278.442 117.953L288.662 93.3884L274.093 60.5526L248.901 51.1591L221.241 62.3927L212.012 86.3101L224.863 117.953L248.901 129.921Z" fill="#D0EAEB" stroke="black" stroke-width="8" stroke-linecap="square"/>
<path d="M249.587 128.425L225.195 114.369L214.968 86.2124L225.195 60.6707" stroke="#B6CFD0" stroke-width="10"/>
<path d="M248.901 129.921C257.499 126.429 276.946 118.56 278.442 117.953L288.662 93.3884L274.093 60.5526L248.901 51.1591L221.241 62.3927L212.012 86.3101L224.863 117.953L248.901 129.921Z" stroke="black" stroke-width="8" stroke-linecap="square"/>
<path d="M413.278 280.508L426.05 295.752H448.709L470.75 275.565V251.464L457.36 238.074L432.937 235.074L410.278 257.733L413.278 280.508Z" fill="black" stroke="black" stroke-width="6" stroke-linecap="square"/>
<path d="M235.721 280.508L222.949 295.752H200.29L178.249 275.565V251.464L191.639 238.074H213.062L235.721 260.733V280.508Z" fill="black" stroke="black" stroke-width="6" stroke-linecap="square"/>
<path d="M358.293 81.1353L337.93 73.8877L311.068 73.9964L290.705 81.2441" stroke="black" stroke-width="18" stroke-linecap="square"/>
<path d="M387.561 68.0742L397.563 74.9744" stroke="white" stroke-width="4"/>
<path d="M393.862 87.4673L410.057 97.6466" stroke="white" stroke-width="4"/>
<path d="M243.023 69.4221L256.904 76.3625" stroke="white" stroke-width="4"/>
<path d="M250.427 92.0942L268.009 102.274" stroke="white" stroke-width="4"/>
<path d="M230.068 81.4521L238.397 86.5417" stroke="white" stroke-width="4"/>
<path d="M426.952 248.213L431.977 242.987L439.71 249.306L434.485 253.929L426.952 248.213Z" fill="white"/>
<path d="M429.503 259.219L432.797 255.712L437.866 259.953L434.441 263.056L429.503 259.219Z" fill="white"/>
<path d="M186.927 249.119L191.951 243.894L199.685 250.212L194.459 254.835L186.927 249.119Z" fill="white"/>
<path d="M189.478 260.126L192.771 256.618L197.841 260.86L194.415 263.963L189.478 260.126Z" fill="white"/>
<path d="M528.228 553.041L439.945 614.06L324.228 633.534L208.681 614.06L120.398 553.041" stroke="black" stroke-width="24"/>
<path d="M556.231 119.806L617.25 208.089L636.725 323.806L617.25 439.352L556.231 527.635" stroke="black" stroke-width="24"/>
<path d="M92.7227 119.806L31.7036 208.089L12.2294 323.806L31.7036 439.352L92.7227 527.635" stroke="black" stroke-width="24"/>
<path d="M528.228 93.1848L439.945 32.1658L324.228 12.6916L208.681 32.1658L120.398 93.1848" stroke="black" stroke-width="24"/>
<defs>
<filter id="filter0_i_19_259" x="355.983" y="46.7583" width="85.3057" height="91.4392" filterUnits="userSpaceOnUse" color-interpolation-filters="sRGB">
<feFlood flood-opacity="0" result="BackgroundImageFix"/>
<feBlend mode="normal" in="SourceGraphic" in2="BackgroundImageFix" result="shape"/>
<feColorMatrix in="SourceAlpha" type="matrix" values="0 0 0 0 0 0 0 0 0 0 0 0 0 0 0 0 0 0 127 0" result="hardAlpha"/>
<feOffset dy="4"/>
<feGaussianBlur stdDeviation="2"/>
<feComposite in2="hardAlpha" operator="arithmetic" k2="-1" k3="1"/>
<feColorMatrix type="matrix" values="0 0 0 0 0 0 0 0 0 0 0 0 0 0 0 0 0 0 0.25 0"/>
<feBlend mode="normal" in2="shape" result="effect1_innerShadow_19_259"/>
</filter>
<filter id="filter1_i_19_259" x="355.983" y="46.7583" width="85.3057" height="91.4392" filterUnits="userSpaceOnUse" color-interpolation-filters="sRGB">
<feFlood flood-opacity="0" result="BackgroundImageFix"/>
<feBlend mode="normal" in="SourceGraphic" in2="BackgroundImageFix" result="shape"/>
<feColorMatrix in="SourceAlpha" type="matrix" values="0 0 0 0 0 0 0 0 0 0 0 0 0 0 0 0 0 0 127 0" result="hardAlpha"/>
<feOffset dy="4"/>
<feGaussianBlur stdDeviation="2"/>
<feComposite in2="hardAlpha" operator="arithmetic" k2="-1" k3="1"/>
<feColorMatrix type="matrix" values="0 0 0 0 0 0 0 0 0 0 0 0 0 0 0 0 0 0 0.25 0"/>
<feBlend mode="normal" in2="shape" result="effect1_innerShadow_19_259"/>
</filter>
</defs>
</svg>
