<svg width="442" height="530" viewBox="0 0 442 530" fill="none" xmlns="http://www.w3.org/2000/svg">
<path d="M150.914 31.4565L219.613 12.7207H223L291.699 31.4565L347.906 76.423L401.616 165.107L429.095 287.515L384.13 437.403L291.699 509.849L223 517.343H219.613L150.914 509.849L58.4833 437.403L13.5176 287.515L40.9968 165.107L94.7065 76.423L150.914 31.4565Z" fill="#F4F4F6"/>
<path d="M159.557 477.477L57.877 436.805L99.904 460.53L138.542 488.323L207.007 512.048L278.86 506.625L343.258 464.597L385.285 425.281L425.957 269.372L400.198 323.602L361.56 419.18L286.995 477.477L219.208 488.323L159.557 477.477Z" fill="#D0D3D9" stroke="#D0D3D9" stroke-width="19"/>
<path d="M150.914 31.4565L219.613 12.7207H223L291.699 31.4565L347.906 76.423L401.616 165.107L429.095 287.515L384.13 437.403L291.699 509.849L223 517.343H219.613L150.914 509.849L58.4833 437.403L13.5176 287.515L40.9968 165.107L94.7065 76.423L150.914 31.4565Z" stroke="#2E2E2E" stroke-width="25"/>
<path d="M160.299 158.806L164.647 173.076L192.989 183.962" stroke="#D0D3D9" stroke-width="12"/>
<path d="M138.174 108.323L143.16 122.674L170.621 118.292" stroke="#D0D3D9" stroke-width="12"/>
<path d="M197.305 186.867C199.371 185.087 228.514 170.785 240.569 163.365L268.481 195.064L299.574 196.312L310.058 208.21L311.887 207.85" stroke="#D0D3D9" stroke-width="12"/>
<path d="M145.361 109.33L147.435 112.71L169.486 109.473L159.528 138.246L167.41 163.519L201.227 177.936M201.227 177.936L240.911 152.728L271.292 183.508L303.086 184.126L305.556 188.168L308.027 192.211M201.227 177.936L184.554 212.1L183.338 220.869" stroke="#2E2E2E" stroke-width="23"/>
<path d="M175.396 215.79L172.533 219.364L193.772 265.9L195.161 215.79L175.396 215.79Z" fill="#2E2E2E" stroke="#2E2E2E"/>
<path d="M317.65 186.91L318.587 188.655L311.748 219.072L299.016 198.223L317.65 186.91Z" fill="#2E2E2E" stroke="#2E2E2E"/>
<path d="M136.452 115.845L133.173 110.601L135.393 79.5927L153.643 105.719L136.452 115.845Z" fill="#2E2E2E" stroke="#2E2E2E"/>
</svg>
